<svg xmlns="http://www.w3.org/2000/svg" viewBox="0 0 66.06 60"><defs><style>.cls-1{fill:#d0efff;}</style></defs><title>adv1</title><g id="Layer_2" data-name="Layer 2"><g id="Index"><g id="Relation"><g id="_1" data-name="1"><g id="Ico"><path class="cls-1" d="M33.67,8.64a1.16,1.16,0,0,0-1.16-1.16A12.18,12.18,0,0,0,20.35,19.64a1.16,1.16,0,1,0,2.32,0,9.85,9.85,0,0,1,9.84-9.84,1.16,1.16,0,0,0,1.16-1.16Zm0,0"/><path class="cls-1" d="M15.48,19.64a17.63,17.63,0,0,0,3.73,10.9l0,0C24.32,37.65,23.06,41,23.06,41a1.16,1.16,0,0,0,.56,1.54,1.06,1.06,0,0,0,.49.11A1.16,1.16,0,0,0,25.16,42c.21-.44,1.87-4.6-4.1-12.85L21,29a15.32,15.32,0,0,1-3.18-9.4,15.48,15.48,0,1,1,31,0,15.33,15.33,0,0,1-3.22,9.45c-6,8.25-4.24,12.45-4,12.91a1.15,1.15,0,0,0,1.51.54A1.17,1.17,0,0,0,43.61,41s-1.34-3.46,3.79-10.54a17.63,17.63,0,0,0,3.68-10.84,17.8,17.8,0,1,0-35.6,0Zm0,0"/><path class="cls-1" d="M43.64,47.13v-1a2.86,2.86,0,0,0-2.86-2.85H25.13a2.85,2.85,0,0,0-2.85,2.85v1A2.86,2.86,0,0,0,25.13,50H40.79a2.86,2.86,0,0,0,2.85-2.85Zm-19,0v-1a.53.53,0,0,1,.53-.53H40.79a.53.53,0,0,1,.53.53v1a.53.53,0,0,1-.53.53H25.13a.53.53,0,0,1-.53-.53Zm0,0"/><path class="cls-1" d="M27,51.75a1.16,1.16,0,0,0-1.16,1.16V56A1.16,1.16,0,0,0,26.53,57l6.26,2.86a1.19,1.19,0,0,0,.48.11,1.14,1.14,0,0,0,.49-.11l6.28-3a1.16,1.16,0,0,0,.66-1.06v-3a1.16,1.16,0,0,0-2.32,0v2.23l-5.13,2.42-5.09-2.32V52.91A1.16,1.16,0,0,0,27,51.75Zm0,0"/><path class="cls-1" d="M60.33,40.63A1.16,1.16,0,0,0,60.09,39L52.21,33.2a1.16,1.16,0,0,0-1.38,1.87l7.88,5.81a1.14,1.14,0,0,0,.69.23,1.16,1.16,0,0,0,.94-.48Zm0,0"/><path class="cls-1" d="M14.17,8a1.16,1.16,0,0,0,1.38-1.87L7.49.23A1.16,1.16,0,0,0,6.11,2.1Zm0,0"/><path class="cls-1" d="M14.54,32.8,6.11,39a1.16,1.16,0,0,0,.69,2.1,1.13,1.13,0,0,0,.69-.23l8.42-6.21a1.16,1.16,0,0,0-1.38-1.87Zm0,0"/><path class="cls-1" d="M51.18,5.78a1.17,1.17,0,0,0,.69,2.1,1.18,1.18,0,0,0,.69-.23L60.09,2.1A1.16,1.16,0,0,0,58.71.23Zm0,0"/><path class="cls-1" d="M64.9,19.39H56a1.16,1.16,0,1,0,0,2.33H64.9a1.16,1.16,0,1,0,0-2.33Zm0,0"/><path class="cls-1" d="M11.49,20.55a1.16,1.16,0,0,0-1.16-1.16H1.16a1.16,1.16,0,0,0,0,2.33h9.16a1.16,1.16,0,0,0,1.16-1.16Zm0,0"/></g></g></g></g></g></svg>