<svg xmlns="http://www.w3.org/2000/svg" viewBox="0 0 60 60"><defs><style>.cls-1{fill:#d0efff;}</style></defs><title>adv3</title><g id="Layer_2" data-name="Layer 2"><g id="Index"><g id="Relation"><g id="_3" data-name="3"><g id="Ico"><path class="cls-1" d="M58.47,34.57a1.2,1.2,0,0,0-1.41.93A27.62,27.62,0,1,1,49.2,10.16H46.11a1.2,1.2,0,0,0,0,2.39h6a1.2,1.2,0,0,0,1.2-1.2v-6a1.2,1.2,0,0,0-2.39,0V8.5A30,30,0,1,0,59.41,36,1.2,1.2,0,0,0,58.47,34.57Z"/><path class="cls-1" d="M58.8,28.8a1.2,1.2,0,0,0-1.2,1.2c0,.27,0,.54,0,.8A1.2,1.2,0,0,0,58.76,32h0A1.2,1.2,0,0,0,60,30.87c0-.29,0-.58,0-.87A1.2,1.2,0,0,0,58.8,28.8Z"/><path class="cls-1" d="M14.43,38.7V42.4c0,.61.69,1,1.18,1H29.16c.49,0,.91-.57.91-1.18a1.07,1.07,0,0,0-.91-1.14H17V38.7c0-5.06,12.79-7.65,12.79-15.84a7.28,7.28,0,0,0-7.58-7.31c-4,0-7.16,2.66-7.16,6.32,0,1.14.38,1.56,1.14,1.56s1.33-.53,1.33-1c0-3,2-4.49,4.61-4.49a4.9,4.9,0,0,1,5.14,5C27.3,29.61,14.43,32.39,14.43,38.7Z"/><path class="cls-1" d="M42.18,43.39c.61,0,1.26-.34,1.26-1V36.84h2.09c.57,0,1-.61,1-1.22s-.3-1.18-1-1.18H43.44V27.09c0-.65-.65-1-1.26-1s-1.26.3-1.26,1v7.35H33.46l8.79-17.36a1.31,1.31,0,0,0,.11-.49c0-.61-.72-1-1.22-1a1.29,1.29,0,0,0-1.18.76L30.42,35.16a1.25,1.25,0,0,0-.15.65,1,1,0,0,0,1,1h9.67V42.4C40.93,43,41.53,43.39,42.18,43.39Z"/></g></g></g></g></g></svg>