<svg xmlns="http://www.w3.org/2000/svg" viewBox="0 0 63.38 60"><defs><style>.cls-1{fill:#d0efff;}</style></defs><title>adv3_1</title><g id="Layer_2" data-name="Layer 2"><g id="Index"><g id="Relation"><g id="_2" data-name="2"><g id="Ico"><path class="cls-1" d="M45,14.54a1,1,0,0,0-2,0c0,18.08-15.56,18.71-17.29,18.71h0a.89.89,0,0,0-.63.24c-.16.08-.24.24-.31.31a1.17,1.17,0,0,0,0,1,1.09,1.09,0,0,0,.94.55h.08C27.51,35.37,43,36,43,54.07a1,1,0,1,0,2,0c0-18,15.48-18.71,17.29-18.71h0a1.2,1.2,0,0,0,.94-.55,1,1,0,0,0-.08-1,1.29,1.29,0,0,0-.86-.55h0C60.52,33.25,45,32.62,45,14.54Zm-1,31.83a17.94,17.94,0,0,0-12.26-12.1,17.94,17.94,0,0,0,12.26-12.1A17.94,17.94,0,0,0,56.2,34.27,17.94,17.94,0,0,0,43.94,46.37Z"/><path class="cls-1" d="M21.46,23.58c0-9.9,8.49-10.22,9.43-10.22H31a1.06,1.06,0,0,0,1-1.1,1,1,0,0,0-1-1h0c-.94,0-9.43-.31-9.43-10.22a1,1,0,1,0-2,0c0,9.9-8.49,10.22-9.43,10.22H10a1,1,0,0,0-.94,1,1,1,0,0,0,1,1h0c1,0,9.43.31,9.43,10.22a1,1,0,0,0,1,1A.91.91,0,0,0,21.46,23.58ZM14.78,12.26a10.57,10.57,0,0,0,5.66-5.58,10.54,10.54,0,0,0,5.66,5.58,10.57,10.57,0,0,0-5.66,5.58A10.54,10.54,0,0,0,14.78,12.26Z"/><path class="cls-1" d="M12.42,59c0-9.9,8.49-10.22,9.43-10.22h.08a1.06,1.06,0,0,0,1-1.1,1,1,0,0,0-1-1h0c-.94,0-9.43-.31-9.43-10.22a1,1,0,1,0-2,0C10.45,46.37,2,46.69,1,46.69H.94a1,1,0,0,0-.94,1,1,1,0,0,0,1,1H1c1,0,9.43.31,9.43,10.22a1,1,0,0,0,1,1C11.95,60.13,12.42,59.66,12.42,59ZM5.74,47.79a10.57,10.57,0,0,0,5.66-5.58,10.54,10.54,0,0,0,5.66,5.58,10.57,10.57,0,0,0-5.66,5.58A10.8,10.8,0,0,0,5.74,47.79Z"/></g></g></g></g></g></svg>