<svg xmlns="http://www.w3.org/2000/svg" viewBox="0 0 68.76 60"><defs><style>.cls-1{fill:#d0efff;}</style></defs><title>adv4</title><g id="Layer_2" data-name="Layer 2"><g id="Index"><g id="Relation"><g id="_4" data-name="4"><g id="Ico"><path class="cls-1" d="M63.53,22.27H47.62a.87.87,0,0,1-.84-1.09L49.62,10.6a8.56,8.56,0,0,0-6-10.47A3.75,3.75,0,0,0,39,2.77l-2,7.42a19.34,19.34,0,0,1-4.91,8.59,63.58,63.58,0,0,1-6.29,5.43c-.61.47-1.09.85-1.42,1.14l-.56.49a1.74,1.74,0,0,1-1.14.42H16.9V22.2a1.54,1.54,0,0,0-1.54-1.54H1.54A1.54,1.54,0,0,0,0,22.2V58.46A1.54,1.54,0,0,0,1.54,60H15.36a1.54,1.54,0,0,0,1.54-1.54V54.41h5.78a1.74,1.74,0,0,1,1.14.42,14.62,14.62,0,0,0,9.57,3.57H58.92a5.24,5.24,0,0,0,5.23-5.23V52.3a5.2,5.2,0,0,0-.92-3,5.23,5.23,0,0,0,2.46-4.43V44a5.2,5.2,0,0,0-.92-3,5.23,5.23,0,0,0,2.46-4.43v-.87a5.21,5.21,0,0,0-.92-3,5.23,5.23,0,0,0,2.46-4.43V27.5A5.24,5.24,0,0,0,63.53,22.27ZM13.83,56.93H3.07V23.74H13.83ZM65.69,28.37a2.16,2.16,0,0,1-2.16,2.16H59.39a1.54,1.54,0,1,0,0,3.07H62a2.16,2.16,0,0,1,2.16,2.16v.87A2.16,2.16,0,0,1,62,38.8H57.55a1.54,1.54,0,1,0,0,3.07h2.91A2.16,2.16,0,0,1,62.62,44v.87a2.16,2.16,0,0,1-2.16,2.16H55.94a1.54,1.54,0,1,0,0,3.07h3a2.16,2.16,0,0,1,2.16,2.16v.87a2.16,2.16,0,0,1-2.16,2.16H33.39a11.54,11.54,0,0,1-7.56-2.82,4.81,4.81,0,0,0-3.15-1.18H16.9v-22h5.78a4.81,4.81,0,0,0,3.15-1.17l.56-.49c.27-.24.75-.61,1.3-1a66.27,66.27,0,0,0,6.59-5.69A22.42,22.42,0,0,0,40,11l2-7.42a.67.67,0,0,1,.82-.47A5.48,5.48,0,0,1,46.65,9.8L43.82,20.38a3.93,3.93,0,0,0,0,1.89H42a1.54,1.54,0,1,0,0,3.07H63.53a2.16,2.16,0,0,1,2.16,2.16Z"/><path class="cls-1" d="M9.61,54.35a1.54,1.54,0,0,0,1.54-1.54V51.28a1.54,1.54,0,0,0-3.07,0v1.54A1.54,1.54,0,0,0,9.61,54.35Z"/><path class="cls-1" d="M27.09,31.36a1.54,1.54,0,0,0-1.54,1.54v7.31a1.54,1.54,0,1,0,3.07,0V32.9A1.54,1.54,0,0,0,27.09,31.36Z"/><path class="cls-1" d="M27.09,44.59a1.54,1.54,0,0,0-1.54,1.54v1.52a1.54,1.54,0,0,0,3.07,0V46.13A1.54,1.54,0,0,0,27.09,44.59Z"/></g></g></g></g></g></svg>