<svg xmlns="http://www.w3.org/2000/svg" viewBox="0 0 86.86 50"><defs><style>.cls-1,.cls-2{fill:#fff;}.cls-1{opacity:0.6;}</style></defs><title>logoGg</title><g id="Layer_2" data-name="Layer 2"><g id="Index"><g id="Header"><g id="Partners"><g id="Ico_3" data-name="Ico 3"><path id="Right" class="cls-1" d="M81.35,18.46a28.89,28.89,0,0,1,.7,3.95,5.44,5.44,0,0,0-1.12-1.8,5.47,5.47,0,0,0-3.32-1,4.39,4.39,0,0,0,1.61,2.72,6.28,6.28,0,0,0,2.92,1,28.79,28.79,0,0,1,0,4,5.55,5.55,0,0,0-.81-2,5.57,5.57,0,0,0-3.16-1.6,4.48,4.48,0,0,0,1.14,3,6.42,6.42,0,0,0,2.76,1.51,26.68,26.68,0,0,1-.7,4A5.81,5.81,0,0,0,80.92,30,5.7,5.7,0,0,0,78,27.85a4.58,4.58,0,0,0,.61,3.24,6.53,6.53,0,0,0,2.51,2,24.37,24.37,0,0,1-1.36,3.59,5.59,5.59,0,0,0-.09-2.15,5.8,5.8,0,0,0-2.52-2.69,4.66,4.66,0,0,0,0,3.36,6.67,6.67,0,0,0,2.13,2.44,24.8,24.8,0,0,1-1.85,3.19,5.68,5.68,0,0,0,.28-2.15,5.92,5.92,0,0,0-2.06-3.15,4.76,4.76,0,0,0-.56,3.38,6.83,6.83,0,0,0,1.69,2.81,27,27,0,0,1-2.3,2.68,5.52,5.52,0,0,0,.61-2,6,6,0,0,0-1.51-3.53,4.86,4.86,0,0,0-1.16,3.3,7,7,0,0,0,1.18,3.09A28.93,28.93,0,0,1,71,47.46a5.47,5.47,0,0,0,.9-1.81,6.17,6.17,0,0,0-.89-3.81,5,5,0,0,0-1.75,3.11,7.1,7.1,0,0,0,.63,3.29c-.4.27-.8.51-1.21.76q.21.32.44.62c.59-.36,1.17-.74,1.74-1.14A7.11,7.11,0,0,0,74,49.94,5,5,0,0,0,77.47,49,6.18,6.18,0,0,0,74,47.2a5.43,5.43,0,0,0-2,.44,29.68,29.68,0,0,0,2.63-2.34,7,7,0,0,0,3.26.88,4.86,4.86,0,0,0,3.16-1.5,6.06,6.06,0,0,0-3.67-1.13,5.32,5.32,0,0,0-1.79.74,27.36,27.36,0,0,0,2.17-2.73,6.84,6.84,0,0,0,3.29.3,4.77,4.77,0,0,0,2.79-2,5.94,5.94,0,0,0-3.74-.47,5.12,5.12,0,0,0-1.58,1,24.93,24.93,0,0,0,1.62-3.08A6.68,6.68,0,0,0,83.41,37a4.66,4.66,0,0,0,2.36-2.4,5.81,5.81,0,0,0-3.68.19,5.1,5.1,0,0,0-1.39,1.27,25,25,0,0,0,1.16-3.49,6.57,6.57,0,0,0,3.07-.81A4.57,4.57,0,0,0,86.8,29.1a5.7,5.7,0,0,0-3.52.81,5.1,5.1,0,0,0-1.14,1.5,27.4,27.4,0,0,0,.5-3.72,6.38,6.38,0,0,0,2.89-1.32,4.48,4.48,0,0,0,1.34-2.94,5.59,5.59,0,0,0-3.27,1.38,5.41,5.41,0,0,0-.92,1.86,29.26,29.26,0,0,0-.16-4,6.24,6.24,0,0,0,2.61-1.78,4.39,4.39,0,0,0,.8-3.06A5.48,5.48,0,0,0,83,19.74a5.61,5.61,0,0,0-.59,2.11,29.2,29.2,0,0,0-.85-4,6.12,6.12,0,0,0,2.21-2.15A4.31,4.31,0,0,0,84,12.56a5.37,5.37,0,0,0-2.49,2.32A5.38,5.38,0,0,0,81.32,17a24.9,24.9,0,0,0-1.53-3.75,6,6,0,0,0,1.76-2.46,4.22,4.22,0,0,0-.29-3,5.25,5.25,0,0,0-2,2.66,5.43,5.43,0,0,0,.17,2.15c-.22-.39-.44-.76-.67-1.12-.51-.84-1-1.61-1.56-2.32a5.83,5.83,0,0,0,1.34-2.73,4.13,4.13,0,0,0-.79-2.87,5.14,5.14,0,0,0-1.49,2.91,5.87,5.87,0,0,0,.64,2.28A27.14,27.14,0,0,0,74,5.52a5.71,5.71,0,0,0,.84-2.88A4,4,0,0,0,73.61,0a5.05,5.05,0,0,0-.94,3.06,6,6,0,0,0,1.08,2.19c-.62-.56-1.18-1-1.65-1.39a3.89,3.89,0,0,0-1.45-2,5.62,5.62,0,0,0-2.21-.39,4.42,4.42,0,0,0,1.42,2,3.1,3.1,0,0,0,2.15.5,26.49,26.49,0,0,1,2,1.84,6.14,6.14,0,0,0-2.34-.86,5.06,5.06,0,0,0-2.94,1.26,4,4,0,0,0,2.75,1A5.7,5.7,0,0,0,74.28,6,27.92,27.92,0,0,1,77,9.25,5.83,5.83,0,0,0,75,8.1a5.16,5.16,0,0,0-3.18.74,4.14,4.14,0,0,0,2.59,1.46,5.87,5.87,0,0,0,2.93-.62c.4.59.81,1.21,1.2,1.88a20.42,20.42,0,0,1,1,1.83,6,6,0,0,0-1.86-1.54,5.25,5.25,0,0,0-3.33.18A4.22,4.22,0,0,0,76.68,14a6,6,0,0,0,3.06-.1,25.51,25.51,0,0,1,1.43,3.92,5.73,5.73,0,0,0-1.5-1.72,5.35,5.35,0,0,0-3.38-.41,4.3,4.3,0,0,0,2,2.35A6.13,6.13,0,0,0,81.35,18.46Z"/><g id="Partner"><path class="cls-2" d="M23.78,45.83V40h5.07v5.83H27.61V41.13H25v4.71Z"/><path class="cls-2" d="M29.5,45.83,31.89,40h1.35l2.37,5.83H34.32l-.42-1.09H31.23l-.43,1.09Zm2.12-2.12H33.5l-.82-2.09a2.57,2.57,0,0,1-.12-.46,1.94,1.94,0,0,1-.13.46Z"/><path class="cls-2" d="M38.46,40c1.41,0,2.52.45,2.52,2s-1.11,2-2.52,2h-.95v1.92H36.26V40Zm.06,1.1h-1v1.72h1c.64,0,1.18-.17,1.18-.86S39.16,41.1,38.52,41.1Z"/><path class="cls-2" d="M46.13,40v1.12H44.34v4.71H43.09V41.13H41.3V40Z"/><path class="cls-2" d="M52,40v5.83H50.73V43.48H48.11v2.35H46.86V40h1.25v2.35h2.61V40Z"/><path class="cls-2" d="M57.33,40v1.1H54.48v1.24h2.61v1.09H54.48v1.3h2.91v1.1H53.23V40Z"/><path class="cls-2" d="M60.57,40c1.41,0,2.52.45,2.52,2s-1.11,2-2.52,2h-.95v1.92H58.37V40Zm.06,1.1h-1v1.72h1c.64,0,1.18-.17,1.18-.86S61.27,41.1,60.63,41.1Z"/></g><g id="Logo"><path class="cls-2" d="M34.41,17.81a4.8,4.8,0,1,0,4.81,4.8A4.73,4.73,0,0,0,34.41,17.81Zm0,7.71a2.77,2.77,0,0,1-2.71-2.91,2.71,2.71,0,1,1,5.41,0A2.78,2.78,0,0,1,34.41,25.51Z"/><path class="cls-2" d="M44.8,17.81a4.8,4.8,0,1,0,4.81,4.8A4.73,4.73,0,0,0,44.8,17.81Zm0,7.71a2.77,2.77,0,0,1-2.71-2.91,2.71,2.71,0,1,1,5.41,0A2.78,2.78,0,0,1,44.8,25.51Z"/><path class="cls-2" d="M57.56,18.88h-.07A3.33,3.33,0,0,0,55,17.81a4.8,4.8,0,0,0,0,9.59,3.27,3.27,0,0,0,2.53-1.09h.07V27c0,1.84-1,2.81-2.56,2.81a2.65,2.65,0,0,1-2.42-1.7l-1.83.76A4.57,4.57,0,0,0,55,31.7c2.47,0,4.56-1.45,4.56-5V18.1h-2Zm-2.41,6.63a2.75,2.75,0,0,1-2.67-2.89,2.77,2.77,0,0,1,2.67-2.92,2.7,2.7,0,0,1,2.56,2.92A2.68,2.68,0,0,1,55.15,25.51Z"/><rect class="cls-2" x="60.81" y="13.05" width="2.06" height="14.06"/><path class="cls-2" d="M68.51,25.51a2.44,2.44,0,0,1-2.33-1.45L72.6,21.4l-.22-.55a4.46,4.46,0,0,0-4.11-3.05,4.56,4.56,0,0,0-4.53,4.8,4.69,4.69,0,0,0,4.76,4.8,4.78,4.78,0,0,0,4-2.13l-1.64-1.09A2.74,2.74,0,0,1,68.51,25.51Zm-.16-5.85a1.86,1.86,0,0,1,1.78,1l-4.29,1.78A2.63,2.63,0,0,1,68.35,19.66Z"/><path class="cls-2" d="M21.82,19.32v2h4.87a4.22,4.22,0,0,1-1.1,2.52,5,5,0,0,1-3.76,1.49,5.42,5.42,0,0,1,0-10.83A5.19,5.19,0,0,1,25.49,16l1.44-1.44a7.1,7.1,0,0,0-5.11-2.05A7.56,7.56,0,0,0,14.27,20a7.56,7.56,0,0,0,7.56,7.45A6.81,6.81,0,0,0,27,25.31a6.72,6.72,0,0,0,1.76-4.76,6.75,6.75,0,0,0-.1-1.23Z"/></g><path id="Left" class="cls-1" d="M5.52,18.46a28.89,28.89,0,0,0-.7,3.95,5.44,5.44,0,0,1,1.12-1.8,5.47,5.47,0,0,1,3.32-1,4.39,4.39,0,0,1-1.61,2.72,6.28,6.28,0,0,1-2.92,1,28.79,28.79,0,0,0,0,4,5.55,5.55,0,0,1,.81-2,5.57,5.57,0,0,1,3.16-1.6,4.48,4.48,0,0,1-1.14,3,6.42,6.42,0,0,1-2.76,1.51,26.68,26.68,0,0,0,.7,4A5.81,5.81,0,0,1,5.94,30a5.7,5.7,0,0,1,2.89-2.17,4.58,4.58,0,0,1-.61,3.24,6.53,6.53,0,0,1-2.51,2,24.37,24.37,0,0,0,1.36,3.59,5.59,5.59,0,0,1,.09-2.15,5.8,5.8,0,0,1,2.52-2.69,4.66,4.66,0,0,1,0,3.36,6.67,6.67,0,0,1-2.13,2.44,24.8,24.8,0,0,0,1.85,3.19,5.68,5.68,0,0,1-.28-2.15,5.92,5.92,0,0,1,2.06-3.15,4.76,4.76,0,0,1,.56,3.38A6.83,6.83,0,0,1,10,41.71a27,27,0,0,0,2.3,2.68,5.52,5.52,0,0,1-.61-2,6,6,0,0,1,1.51-3.53,4.86,4.86,0,0,1,1.16,3.3,7,7,0,0,1-1.18,3.09,28.93,28.93,0,0,0,2.64,2.2,5.47,5.47,0,0,1-.9-1.81,6.17,6.17,0,0,1,.89-3.81,5,5,0,0,1,1.75,3.11,7.1,7.1,0,0,1-.63,3.29c.4.27.8.51,1.21.76q-.21.32-.44.62c-.59-.36-1.17-.74-1.74-1.14a7.11,7.11,0,0,1-3.12,1.47A5,5,0,0,1,9.4,49a6.18,6.18,0,0,1,3.49-1.79,5.43,5.43,0,0,1,2,.44,29.68,29.68,0,0,1-2.63-2.34A7,7,0,0,1,9,46.19a4.86,4.86,0,0,1-3.16-1.5,6.06,6.06,0,0,1,3.67-1.13,5.32,5.32,0,0,1,1.79.74,27.36,27.36,0,0,1-2.17-2.73,6.84,6.84,0,0,1-3.29.3,4.77,4.77,0,0,1-2.79-2,5.94,5.94,0,0,1,3.74-.47,5.12,5.12,0,0,1,1.58,1A24.93,24.93,0,0,1,6.7,37.32,6.68,6.68,0,0,1,3.45,37a4.66,4.66,0,0,1-2.36-2.4,5.81,5.81,0,0,1,3.68.19,5.1,5.1,0,0,1,1.39,1.27A25,25,0,0,1,5,32.63a6.57,6.57,0,0,1-3.07-.81A4.57,4.57,0,0,1,.06,29.1a5.7,5.7,0,0,1,3.52.81,5.1,5.1,0,0,1,1.14,1.5,27.4,27.4,0,0,1-.5-3.72,6.38,6.38,0,0,1-2.89-1.32A4.48,4.48,0,0,1,0,23.43a5.59,5.59,0,0,1,3.27,1.38,5.41,5.41,0,0,1,.92,1.86,29.26,29.26,0,0,1,.16-4,6.24,6.24,0,0,1-2.61-1.78,4.39,4.39,0,0,1-.8-3.06,5.48,5.48,0,0,1,2.92,1.88,5.61,5.61,0,0,1,.59,2.11,29.2,29.2,0,0,1,.85-4,6.12,6.12,0,0,1-2.21-2.15,4.31,4.31,0,0,1-.25-3.09,5.37,5.37,0,0,1,2.49,2.32A5.38,5.38,0,0,1,5.54,17a24.9,24.9,0,0,1,1.53-3.75,6,6,0,0,1-1.76-2.46,4.22,4.22,0,0,1,.29-3,5.25,5.25,0,0,1,2,2.66,5.43,5.43,0,0,1-.17,2.15c.22-.39.44-.76.67-1.12.51-.84,1-1.61,1.56-2.32A5.83,5.83,0,0,1,8.33,6.37,4.13,4.13,0,0,1,9.12,3.5a5.14,5.14,0,0,1,1.49,2.91A5.87,5.87,0,0,1,10,8.69a27.14,27.14,0,0,1,2.87-3.18A5.71,5.71,0,0,1,12,2.63,4,4,0,0,1,13.25,0a5.05,5.05,0,0,1,.94,3.06,6,6,0,0,1-1.08,2.19c.62-.56,1.18-1,1.65-1.39a3.89,3.89,0,0,1,1.45-2,5.62,5.62,0,0,1,2.21-.39,4.42,4.42,0,0,1-1.42,2,3.1,3.1,0,0,1-2.15.5,26.49,26.49,0,0,0-2,1.84,6.14,6.14,0,0,1,2.34-.86A5.06,5.06,0,0,1,18.1,6.17a4,4,0,0,1-2.75,1A5.7,5.7,0,0,1,12.58,6,27.92,27.92,0,0,0,9.87,9.25a5.83,5.83,0,0,1,2-1.15,5.16,5.16,0,0,1,3.18.74,4.14,4.14,0,0,1-2.59,1.46,5.87,5.87,0,0,1-2.93-.62c-.4.59-.81,1.21-1.2,1.88a20.42,20.42,0,0,0-1,1.83,6,6,0,0,1,1.86-1.54,5.25,5.25,0,0,1,3.33.18A4.22,4.22,0,0,1,10.19,14a6,6,0,0,1-3.06-.1A25.51,25.51,0,0,0,5.7,17.79a5.73,5.73,0,0,1,1.5-1.72,5.35,5.35,0,0,1,3.38-.41,4.3,4.3,0,0,1-2,2.35A6.13,6.13,0,0,1,5.52,18.46Z"/></g></g></g></g></g></svg>