<svg xmlns="http://www.w3.org/2000/svg" viewBox="0 0 240.16 60"><defs><style>.cls-1{fill:#fff;}</style></defs><title>logo</title><g id="Layer_2" data-name="Layer 2"><g id="Index"><g id="Header"><g id="Logo"><path class="cls-1" d="M75.63,44.91H74.47V40.42l-4.1,4.67h-.26V38.34h1.17v4.49l4.09-4.67h.26Z"/><path class="cls-1" d="M84.7,44.91H83.52v-3h-3v3H79.33V38.34h1.17V41h3V38.34H84.7Z"/><path class="cls-1" d="M92.89,39.32H91v5.58H89.83V39.32H88v-1h4.94Z"/><path class="cls-1" d="M101.66,41.75H96.93A2.78,2.78,0,0,0,97.17,43a1.9,1.9,0,0,0,.71.79,2.06,2.06,0,0,0,1.12.29,2.45,2.45,0,0,0,1.67-.59l.48.94a2.6,2.6,0,0,1-1,.49,6,6,0,0,1-1.36.13,2.88,2.88,0,0,1-2.2-.92,3.37,3.37,0,0,1-.86-2.41,3.55,3.55,0,0,1,.91-2.53,2.87,2.87,0,0,1,2.17-1A3,3,0,0,1,101,39a2.68,2.68,0,0,1,.81,2.05A3.48,3.48,0,0,1,101.66,41.75ZM98.84,39.2A1.85,1.85,0,0,0,97,40.89h3.63a1.65,1.65,0,0,0-.48-1.22A1.74,1.74,0,0,0,98.84,39.2Z"/><path class="cls-1" d="M106.22,44.55v2.94H105V38.34h1.17v.54a2.17,2.17,0,0,1,1.59-.67,2.74,2.74,0,0,1,2.17.88,3.73,3.73,0,0,1,.78,2.55,3.68,3.68,0,0,1-.79,2.45,2.8,2.8,0,0,1-2.27.94,3,3,0,0,1-.88-.15A1.18,1.18,0,0,1,106.22,44.55Zm0-4.79v3.83a1.15,1.15,0,0,0,.48.32,1.73,1.73,0,0,0,.67.14q2.17,0,2.17-2.46a2.63,2.63,0,0,0-.53-1.84,2.16,2.16,0,0,0-1.64-.56,1.44,1.44,0,0,0-.61.18A1.86,1.86,0,0,0,106.22,39.76Z"/><path class="cls-1" d="M119.45,44.91h-1.17v-3h-3v3h-1.17V38.34h1.17V41h3V38.34h1.17Z"/><path class="cls-1" d="M128.68,41.75h-4.73a2.78,2.78,0,0,0,.24,1.23,1.9,1.9,0,0,0,.71.79,2.06,2.06,0,0,0,1.12.29,2.45,2.45,0,0,0,1.67-.59l.48.94a2.6,2.6,0,0,1-1,.49,6,6,0,0,1-1.36.13,2.88,2.88,0,0,1-2.2-.92,3.37,3.37,0,0,1-.86-2.41,3.55,3.55,0,0,1,.91-2.53,2.87,2.87,0,0,1,2.17-1A3,3,0,0,1,128,39a2.68,2.68,0,0,1,.81,2.05A3.48,3.48,0,0,1,128.68,41.75Zm-2.82-2.55a1.85,1.85,0,0,0-1.87,1.7h3.63a1.65,1.65,0,0,0-.48-1.22A1.74,1.74,0,0,0,125.86,39.2Z"/><path class="cls-1" d="M136.55,39.32h-1.88v5.58H133.5V39.32h-1.89v-1h4.94Z"/><path class="cls-1" d="M149.27,44.16a2.59,2.59,0,0,1-2.13.88,1.83,1.83,0,0,1-1.34-.56,1.89,1.89,0,0,1-.56-1.39,2.08,2.08,0,0,1,.87-1.69,3.49,3.49,0,0,1,2.23-.69,2.88,2.88,0,0,1,.85.15q0-1.59-1.43-1.59a2.3,2.3,0,0,0-1.68.59l-.49-1a2.83,2.83,0,0,1,.89-.46,3.51,3.51,0,0,1,1.16-.21,2.87,2.87,0,0,1,2,.63,2.8,2.8,0,0,1,.66,2.1v2.35a1.2,1.2,0,0,0,.51,1.15V45a2,2,0,0,1-1.1-.23A1.15,1.15,0,0,1,149.27,44.16Zm-.1-2.47a5.62,5.62,0,0,0-.78-.13A2.19,2.19,0,0,0,147,42a1.36,1.36,0,0,0-.56,1.07q0,1,1.21,1a2,2,0,0,0,1.57-.84Z"/><path class="cls-1" d="M158.36,39.32H155.3v5.58h-1.17V38.34h4.23Z"/><path class="cls-1" d="M167.13,41.75H162.4a2.78,2.78,0,0,0,.24,1.23,1.9,1.9,0,0,0,.71.79,2.06,2.06,0,0,0,1.12.29,2.45,2.45,0,0,0,1.67-.59l.48.94a2.6,2.6,0,0,1-1,.49,6,6,0,0,1-1.36.13,2.88,2.88,0,0,1-2.2-.92,3.37,3.37,0,0,1-.86-2.41,3.55,3.55,0,0,1,.91-2.53,2.87,2.87,0,0,1,2.17-1,3,3,0,0,1,2.17.76,2.68,2.68,0,0,1,.81,2.05A3.48,3.48,0,0,1,167.13,41.75Zm-2.82-2.55a1.85,1.85,0,0,0-1.87,1.7h3.63a1.65,1.65,0,0,0-.48-1.22A1.74,1.74,0,0,0,164.31,39.2Z"/><path class="cls-1" d="M175.88,44.91h-1.17v-3h-3v3h-1.17V38.34h1.17V41h3V38.34h1.17Z"/><path class="cls-1" d="M192.53,38.88l-.56.82a2,2,0,0,0-.65-.35,2.55,2.55,0,0,0-.87-.16,1.86,1.86,0,0,0-1.52.67,2.78,2.78,0,0,0-.56,1.83,2.51,2.51,0,0,0,.56,1.74,2,2,0,0,0,1.6.62,2.61,2.61,0,0,0,1.59-.62l.45,1a4.09,4.09,0,0,1-2.32.61,2.94,2.94,0,0,1-2.21-.9,3.35,3.35,0,0,1-.87-2.43,3.47,3.47,0,0,1,.93-2.55,3.33,3.33,0,0,1,2.48-.93,3.19,3.19,0,0,1,1.12.22A2.82,2.82,0,0,1,192.53,38.88Z"/><path class="cls-1" d="M200.34,39.32h-1.88v5.58h-1.16V39.32H195.4v-1h4.94Z"/><path class="cls-1" d="M184.22,39.32h-1.88v5.58h-1.16V39.32h-1.89v-1h4.94Z"/><path class="cls-1" d="M207.51,41.38A1.61,1.61,0,0,1,208.76,43a1.68,1.68,0,0,1-.63,1.34,2.84,2.84,0,0,1-1.88.53h-2.67V38.36q1.39-.07,2.56-.07a2.86,2.86,0,0,1,1.72.45,1.53,1.53,0,0,1,.61,1.32,1.32,1.32,0,0,1-.26.8A1.58,1.58,0,0,1,207.51,41.38ZM204.69,44q.69,0,1.43,0,1.47,0,1.47-1.07a.93.93,0,0,0-.38-.79,1.86,1.86,0,0,0-1.11-.28q-.94,0-1.41,0Zm0-3h1.41q1.24,0,1.25-1a.79.79,0,0,0-.29-.65,1.27,1.27,0,0,0-.82-.24q-1,0-1.55,0Z"/><path class="cls-1" d="M214.67,38.22a2.71,2.71,0,0,1,2.18.91,3.7,3.7,0,0,1,.77,2.48,3.66,3.66,0,0,1-.81,2.52,3,3,0,0,1-4.34,0,3.73,3.73,0,0,1-.78-2.51,3.59,3.59,0,0,1,.82-2.45A2.73,2.73,0,0,1,214.67,38.22Zm0,5.87a1.46,1.46,0,0,0,1.28-.68,3.17,3.17,0,0,0,.46-1.8q0-2.43-1.73-2.43a1.5,1.5,0,0,0-1.29.66,3,3,0,0,0-.47,1.77Q212.9,44.08,214.66,44.08Z"/><path class="cls-1" d="M139.19,42.31v-1h3.2v1"/><path class="cls-1" d="M83.94,27.93q0,1.36-.93,1.36a2.34,2.34,0,0,1-1.53-.85l-9-9.09v9.79H70V16.26a1.4,1.4,0,0,1,.27-.86A.9.9,0,0,1,71,15a2.05,2.05,0,0,1,1.4.72l9,9.07V15h2.46Z"/><path class="cls-1" d="M99.31,29.15H87.12V15H99.31V17.5H89.58v9.19h9.73Zm-.64-5.93H90.61V20.76h8.06Z"/><path class="cls-1" d="M114.62,17.5h-5.56V29.15h-2.44V17.5H101V15h13.57Z"/><path class="cls-1" d="M146.1,15l-7.27,13q-.76,1.38-1.53,1.38T135.77,28l-2-3.61-2,3.61q-.76,1.38-1.53,1.38T128.7,28l-7.08-13h3.16l5.52,10.27,2-3.7L128.68,15h3.16l5.52,10.27L142.94,15Z"/><path class="cls-1" d="M150.14,29.15h-2.46V15h2.46Z"/><path class="cls-1" d="M167.81,29.15H154.63q-1.59,0-1.59-1a2.06,2.06,0,0,1,.76-1.38L163,17.5H152.69V15h13a2.12,2.12,0,0,1,1.09.27,1,1,0,0,1,.54.91,1.72,1.72,0,0,1-.62,1.22l-9.23,9.25h10.37Z"/><path class="cls-1" d="M187.9,29.15l-3.16,0-2.38-3.95h-6.69l1.49-2.44h3.74l-2.46-4.07-6.36,10.45h-3.16l7.66-12.74a3.3,3.3,0,0,1,.81-.91,1.91,1.91,0,0,1,1.12-.48,1.83,1.83,0,0,1,1.12.45,3.25,3.25,0,0,1,.81.93Z"/><path class="cls-1" d="M205.48,29.15h-3.64l-3.95-4h-5.31V22.75h6.61a4.14,4.14,0,0,0,2.29-.6,2.27,2.27,0,0,0,1.05-2q0-2.64-3.35-2.64h-8.06V29.15h-2.46V15h10.12a7.49,7.49,0,0,1,4.4,1.18,4.51,4.51,0,0,1,1.92,3.95A4.5,4.5,0,0,1,204,23.22a5.45,5.45,0,0,1-2.81,1.67Z"/><path class="cls-1" d="M223.21,21.94a7.08,7.08,0,0,1-2,5.16,6.84,6.84,0,0,1-5.1,2h-8V15h8a7.11,7.11,0,0,1,5.11,1.9A6.59,6.59,0,0,1,223.21,21.94Zm-2.46.21a4.47,4.47,0,0,0-4.65-4.65h-5.52v9.19h5.52a4.62,4.62,0,0,0,3.34-1.26A4.35,4.35,0,0,0,220.75,22.15Z"/><path class="cls-1" d="M240.16,24.79A4,4,0,0,1,238.74,28a5.14,5.14,0,0,1-3.41,1.14H224.57V26.69h10.76a3.3,3.3,0,0,0,1.76-.45,1.72,1.72,0,0,0,.85-1.51,1.62,1.62,0,0,0-.87-1.47,3.31,3.31,0,0,0-1.74-.43h-6.65a4.71,4.71,0,0,1-3.08-1,3.57,3.57,0,0,1-1.32-2.89,3.55,3.55,0,0,1,1.32-2.87,4.71,4.71,0,0,1,3.08-1h10.64V17.5H228.68a1.87,1.87,0,0,0-1.2.39,1.27,1.27,0,0,0-.5,1.05,1.24,1.24,0,0,0,.5,1.05,1.94,1.94,0,0,0,1.2.37h6.65a5,5,0,0,1,3.41,1.18A4.09,4.09,0,0,1,240.16,24.79Z"/><path class="cls-1" d="M40.67,49.48a24.14,24.14,0,0,1-9.2-1.65,16.26,16.26,0,0,1-4.59-2.58,11.2,11.2,0,0,1-2.47-2.76A2.36,2.36,0,0,1,24,40.87a1.19,1.19,0,0,1,1-.78,6.51,6.51,0,0,1,2.28.06l3.89.65a16.72,16.72,0,0,1-5-4.44,9.35,9.35,0,0,1-2-5.55c0-.53.12-1,.11-1.57l.22,0-.14,0a8.93,8.93,0,0,1,.6-1.59c.11-.49.58-.76.76-1.21a3.79,3.79,0,0,0,.51-.52A9.7,9.7,0,0,1,30,23.53a11.84,11.84,0,0,1,7.22-.13,33.33,33.33,0,0,0,4.44.82,2.09,2.09,0,0,1,.78.22,26,26,0,0,0-3.69,2.48,12.87,12.87,0,0,0,2,0c.44-.08.88-.14,1.32-.19a12.55,12.55,0,0,0,2.8-.84,11.84,11.84,0,0,0,2.37-1.77A6.15,6.15,0,0,1,45,23.6a3,3,0,0,1-1.15-2.09A3.76,3.76,0,0,1,40.5,22a5.08,5.08,0,0,1-3-3.29,23.32,23.32,0,0,1,5.18-2.41,4.63,4.63,0,0,1,2.74-.13,1.78,1.78,0,0,1,1.15,1.42,12.88,12.88,0,0,1,2.78-.05,1.79,1.79,0,0,1,.92.32,6.3,6.3,0,0,1,1,1.17,5.47,5.47,0,0,1,.8-1.59A3.36,3.36,0,0,0,52.79,16a1.06,1.06,0,0,0-.7-1.08,1.83,1.83,0,0,0-1.62.17A2.54,2.54,0,0,0,49.33,15a2.94,2.94,0,0,1-1.24-.16A16.19,16.19,0,0,1,45,13.56a2.43,2.43,0,0,1-1-.8,2.71,2.71,0,0,0-1.07-1,18.8,18.8,0,0,0-3.13-1.28c-1.66-.56-3.36-1-5-1.59A52.46,52.46,0,0,1,26.25,4.7a4.4,4.4,0,0,0,1.2,2.13,21.07,21.07,0,0,0,3.32,2.89,8.91,8.91,0,0,0-1.83-.4,28.57,28.57,0,0,0-5,0,.83.83,0,0,0-.37.11,6.81,6.81,0,0,0,1.05.52,5.92,5.92,0,0,1,2.53,1.76,25.79,25.79,0,0,0-21.29,18c0,.12-.09.23-.13.35a22.63,22.63,0,0,0-.83,5.83c0-.19-.05-.37-.07-.56A24.8,24.8,0,0,1,6.58,23.84a23.34,23.34,0,0,1,5.36-8,22,22,0,0,1,9.49-5.46,19.24,19.24,0,0,0-4.06-.48,12.09,12.09,0,0,0-3.15.39A36.38,36.38,0,0,0,10,11.54,32.81,32.81,0,0,1,28,3a26.56,26.56,0,0,1,9.14.38,21.42,21.42,0,0,1,4.3,1.19,29.87,29.87,0,0,1,9.26,5.66,50.88,50.88,0,0,1,6.69,7.54l.09.12A30.1,30.1,0,0,0,42.43,2.67,29.6,29.6,0,0,0,33.37.19L32.84.13h0Q32.1.06,31.35,0H28.67l-.44,0h-.17l-.69.05h0l-.67.07h0a30,30,0,0,0-25,19.91,11.54,11.54,0,0,0-.4,1.24A30,30,0,0,0,25.71,59.69h0l.74.1.26,0,.29,0,.59.05h.18l.39,0,.61,0h1.25a30.38,30.38,0,0,0,3.63-.22,29.77,29.77,0,0,0,14.56-5.94l-.15.09c-.44.26-.87.54-1.32.78a33.28,33.28,0,0,1-15.15,4,22.65,22.65,0,0,1-6.07-.54A32.59,32.59,0,0,0,37.49,56.6a39.22,39.22,0,0,0,9.57-4.5,32.59,32.59,0,0,0,7.26-6.35,22.38,22.38,0,0,0,4.46-8.22,15.62,15.62,0,0,0,.79-4.4C54.91,47.18,44.64,49.41,40.67,49.48Z"/><path class="cls-1" d="M47,44.34a15.84,15.84,0,0,1-3.69,3.76,21.94,21.94,0,0,0,15-15.19c-.54-.28-19.93-6.82-26-4.16.9,0,1.81,0,2.71.11a18.34,18.34,0,0,1,5.83,1.81,16.13,16.13,0,0,1,6.15,5A7.28,7.28,0,0,1,47,44.34Z"/><path class="cls-1" d="M54.26,21.24a.75.75,0,0,1,.08-.82A4.83,4.83,0,0,1,55.7,19.2,25.26,25.26,0,0,1,50,20a16.19,16.19,0,0,1-2.76-.52,19.12,19.12,0,0,0-3.5-.67,13.23,13.23,0,0,1,4.18,3.56c.53.88.62,2,1.15,2.84a5.34,5.34,0,0,0,1.66,1.66,1.37,1.37,0,0,1,.13-1.65,4,4,0,0,1,2.41-.82,5.19,5.19,0,0,1,3.64,1.25,12.2,12.2,0,0,1,3,3.56,8.7,8.7,0,0,0-1-4.16,5.23,5.23,0,0,0-2-1.76A7.8,7.8,0,0,1,54.26,21.24Z"/></g></g></g></g></svg>