<?xml version="1.0" encoding="utf-8"?>
<!-- Generator: Adobe Illustrator 18.0.0, SVG Export Plug-In . SVG Version: 6.00 Build 0)  -->
<!DOCTYPE svg PUBLIC "-//W3C//DTD SVG 1.1//EN" "http://www.w3.org/Graphics/SVG/1.1/DTD/svg11.dtd">
<svg version="1.1" id="Слой_1" xmlns="http://www.w3.org/2000/svg" xmlns:xlink="http://www.w3.org/1999/xlink" x="0px" y="0px"
	 viewBox="0 0 32 32" enable-background="new 0 0 32 32" xml:space="preserve">
<g id="Слой_2">
</g>
<g>
	<g>
		<g>
			<g>
				<g>
					<path d="M16,26.5c-0.2,0-0.4-0.1-0.5-0.2L3.2,14C3,13.8,2.9,13.5,3,13.2c0.1-0.3,0.3-0.4,0.6-0.4c0,0,0.1,0,0.1,0h9.9
						c0.4,0,0.7,0.3,0.7,0.6c0,0.4-0.2,0.7-0.5,0.8l-5.2,1.5l0.5,1.7l6.8,6.8l8.4-8.4l-0.6-2c-0.1-0.2,0-0.5,0.1-0.6
						c0.1-0.2,0.4-0.3,0.6-0.3h3.8c0,0,0.1,0,0.1,0c0.3,0,0.5,0.2,0.6,0.4c0.1,0.3,0.1,0.6-0.2,0.8L16.5,26.3
						C16.4,26.4,16.2,26.5,16,26.5z M5.5,14.2L7.2,16l-0.2-0.6C7,15,7.2,14.6,7.6,14.5l0.9-0.3H5.5z M25.4,14.2l0.3,0.9l0.9-0.9
						H25.4z"/>
				</g>
			</g>
		</g>
		<g>
			<g>
				<g>
					<path d="M28.3,13.7h-4c-0.3,0-0.6-0.2-0.7-0.5l-0.5-1.7l-7.6,2.2c-0.1,0-0.1,0-0.2,0H3.7c0,0-0.1,0-0.1,0
						c-0.3,0-0.5-0.2-0.6-0.4c-0.1-0.3,0-0.6,0.2-0.8L15.5,0.2c0.3-0.3,0.8-0.3,1,0l12.3,12.3c0.2,0.2,0.3,0.5,0.2,0.8
						C28.8,13.5,28.6,13.7,28.3,13.7C28.3,13.7,28.3,13.7,28.3,13.7z M24.8,12.3h1.7L16,1.7L5.5,12.3h9.7l8.2-2.4
						c0.2-0.1,0.4,0,0.6,0.1c0.2,0.1,0.3,0.2,0.3,0.4L24.8,12.3z"/>
				</g>
			</g>
		</g>
		<g>
			<g>
				<g>
					<path d="M28.3,32H3.7c-1,0-1.8-0.8-1.8-1.8v-16c0-1,0.8-1.8,1.8-1.8h16.1L8.7,15.7l0.5,1.7l6.8,6.8l8.4-8.4l-0.9-3.2h4.9
						c1,0,1.8,0.8,1.8,1.8v16C30,31.2,29.2,32,28.3,32z M3.7,13.9c-0.2,0-0.3,0.1-0.3,0.3v16c0,0.2,0.1,0.3,0.3,0.3h24.5
						c0.2,0,0.3-0.1,0.3-0.3v-16c0-0.2-0.1-0.3-0.3-0.3h-2.9l0.6,2.2l-10,10l-8-8.1l-1-3.4l2.6-0.7H3.7z"/>
				</g>
			</g>
		</g>
	</g>
</g>
</svg>
